<svg xmlns="http://www.w3.org/2000/svg" width="37" height="28" viewBox="0 0 37 28">
    <defs>
        <linearGradient id="2s48s6zbua" x1="0%" x2="100%" y1="50%" y2="50%">
            <stop offset="0%" stop-color="#F4E0BB"/>
            <stop offset="100%" stop-color="#C8B178"/>
        </linearGradient>
    </defs>
    <g fill="none" fill-rule="evenodd" stroke="#BEAB7E" stroke-width=".5">
        <rect width="36.5" height="27.5" x=".25" y=".25" fill="url(#2s48s6zbua)" rx="4"/>
        <path d="M0.25 9.25H36.75V18.75H0.25z"/>
        <path d="M18.5 3.25c1.45 0 2.762.588 3.712 1.538.95.95 1.538 2.262 1.538 3.712h0v.691c-.431 2.242-.645 3.845-.645 4.809 0 1.136.208 2.194.39 3.115.134.681.255 1.284.255 1.784h0v.601c0 1.45-.588 2.762-1.538 3.712-.95.95-2.262 1.538-3.712 1.538-1.45 0-2.762-.588-3.712-1.538-.95-.95-1.538-2.262-1.538-3.712h0v-.51c.574-2.154.86-3.818.86-4.99 0-1.172-.285-2.821-.86-4.946h0V8.5c0-1.45.588-2.762 1.538-3.712.95-.95 2.262-1.538 3.712-1.538z"/>
    </g>
</svg>
